# xmcd
#
# Track frame offsets: 
#        182
#        12337
#        28222
#        43295
#        57337
#        71515
#        85735
#        100990
#        114257
#        129147
#        146502
#        163120
#        180500
#        199395
#        213557
#        227502
#        242620
#        261040
#        274647
#        295020
#        313185
#        331547
#
# Disc length: 4665 seconds
#
# Revision: 7
# Processed by: cddbd v1.5.2PL0 Copyright (c) Steve Scherf et al.
# Submitted via: ExactAudioCopyFreeDBPlugin 1.0
#
DISCID=37123716
DTITLE=Smokey Robinson - Smokey Robinson and The Miracles:  The 35th A
DTITLE=nniversary Collection [box set]
DYEAR=1994
DGENRE=Soul
TTITLE0=Point it Out
TTITLE1=Who's Gonna Take the Blame
TTITLE2=I Gotta Thing for You
TTITLE3=The Tears of a Clown
TTITLE4=Promise Me
TTITLE5=I Don't Blame You at All
TTITLE6=There's a Sad Story Here
TTITLE7=Crazy About The La La La
TTITLE8=Satisfaction
TTITLE9=We've Come Too Far to End it Now
TTITLE10=I Can't Stand to See You Cry
TTITLE11=Here I Go Again (live)
TTITLE12=Sweet Harmony (solo Smokey Robinson)
TTITLE13=Don't Let it End ('Til You Let it Begin) (as "The Miracles")
TTITLE14=Do it Baby (as "The Miracles")
TTITLE15=Don't Cha Love It (as "The Miracles")
TTITLE16=Quiet Storm (solo Smokey Robinson)
TTITLE17=Love Machine, Part 1 (as "The Miracles")
TTITLE18=Cruisin' (solo Smokey Robinson)
TTITLE19=Being with You (solo Smokey Robinson)
TTITLE20=Just to See Her (solo Smokey Robinson)
TTITLE21=One Heartbeat (solo Smokey Robinson)
EXTD=YEAR: 1994
EXTT0=
EXTT1=
EXTT2=
EXTT3=
EXTT4=
EXTT5=
EXTT6=
EXTT7=
EXTT8=
EXTT9=
EXTT10=
EXTT11=
EXTT12=
EXTT13=
EXTT14=
EXTT15=
EXTT16=
EXTT17=
EXTT18=
EXTT19=
EXTT20=
EXTT21=
PLAYORDER=
